C:\Users\Nicos\Documents\OpenSimProjects\SprintingProject\Study1\PredictiveResults\IC_pred_Sprinting_optimum_28-October-2023__01-01-41_p02_maxVel_01___HTD_Minus_2_GRF.mot
version=1
nRows=9
nColumns=127
inDegrees=yes
endheader
time	ground_force_vx	ground_force_vy	ground_force_vz	ground_force_px	ground_force_py	ground_force_pz	ground_torque_x	ground_torque_y	ground_torque_z	1_ground_force_vx	1_ground_force_vy	1_ground_force_vz	1_ground_force_px	1_ground_force_py	1_ground_force_pz	1_ground_torque_x	1_ground_torque_y	1_ground_torque_z	2_ground_force_vx	2_ground_force_vy	2_ground_force_vz	2_ground_force_px	2_ground_force_py	2_ground_force_pz	2_ground_torque_x	2_ground_torque_y	2_ground_torque_z	3_ground_force_vx	3_ground_force_vy	3_ground_force_vz	3_ground_force_px	3_ground_force_py	3_ground_force_pz	3_ground_torque_x	3_ground_torque_y	3_ground_torque_z	4_ground_force_vx	4_ground_force_vy	4_ground_force_vz	4_ground_force_px	4_ground_force_py	4_ground_force_pz	4_ground_torque_x	4_ground_torque_y	4_ground_torque_z	5_ground_force_vx	5_ground_force_vy	5_ground_force_vz	5_ground_force_px	5_ground_force_py	5_ground_force_pz	5_ground_torque_x	5_ground_torque_y	5_ground_torque_z	6_ground_force_vx	6_ground_force_vy	6_ground_force_vz	6_ground_force_px	6_ground_force_py	6_ground_force_pz	6_ground_torque_x	6_ground_torque_y	6_ground_torque_z	7_ground_force_vx	7_ground_force_vy	7_ground_force_vz	7_ground_force_px	7_ground_force_py	7_ground_force_pz	7_ground_torque_x	7_ground_torque_y	7_ground_torque_z	8_ground_force_vx	8_ground_force_vy	8_ground_force_vz	8_ground_force_px	8_ground_force_py	8_ground_force_pz	8_ground_torque_x	8_ground_torque_y	8_ground_torque_z	9_ground_force_vx	9_ground_force_vy	9_ground_force_vz	9_ground_force_px	9_ground_force_py	9_ground_force_pz	9_ground_torque_x	9_ground_torque_y	9_ground_torque_z	10_ground_force_vx	10_ground_force_vy	10_ground_force_vz	10_ground_force_px	10_ground_force_py	10_ground_force_pz	10_ground_torque_x	10_ground_torque_y	10_ground_torque_z	11_ground_force_vx	11_ground_force_vy	11_ground_force_vz	11_ground_force_px	11_ground_force_py	11_ground_force_pz	11_ground_torque_x	11_ground_torque_y	11_ground_torque_z	12_ground_force_vx	12_ground_force_vy	12_ground_force_vz	12_ground_force_px	12_ground_force_py	12_ground_force_pz	12_ground_torque_x	12_ground_torque_y	12_ground_torque_z	13_ground_force_vx	13_ground_force_vy	13_ground_force_vz	13_ground_force_px	13_ground_force_py	13_ground_force_pz	13_ground_torque_x	13_ground_torque_y	13_ground_torque_z
0.157544	-0.000000	0.000000	0.000000	0.492965	0.080813	0.417965	0.000000	0.000000	0.000000	-0.000000	0.000000	0.000000	0.502583	0.102914	0.438480	0.000000	0.000000	0.000000	-0.000000	0.000000	0.000000	0.512198	0.114702	0.435259	0.000000	0.000000	0.000000	-0.000000	0.000000	0.000000	0.510075	0.112722	0.412981	0.000000	0.000000	0.000000	-0.000000	0.000000	0.000000	0.525252	0.157689	0.464636	0.000000	0.000000	0.000000	-0.000000	0.000000	0.000000	0.515517	0.129352	0.429733	0.000000	0.000000	0.000000	-0.000000	0.000000	0.000000	0.528794	0.187950	0.407632	0.000000	0.000000	0.000000	-0.000000	0.000000	-0.000000	1.531085	0.118795	0.111068	0.000000	0.000000	0.000000	-0.000000	0.000000	-0.000000	1.491135	0.128533	0.088889	0.000000	0.000000	0.000000	-0.000000	0.000000	-0.000000	1.465059	0.133158	0.093538	0.000000	0.000000	0.000000	-0.000000	0.000000	-0.000000	1.465436	0.128802	0.114525	0.000000	0.000000	0.000000	-0.000000	0.000000	-0.000000	1.386277	0.149645	0.059909	0.000000	0.000000	0.000000	-0.000000	0.000000	-0.000000	1.435795	0.136106	0.096511	0.000000	0.000000	0.000000	-0.000000	0.000000	-0.000000	1.318739	0.147901	0.108401	0.000000	0.000000	0.000000
0.158174	-0.000000	0.000000	0.000000	0.497803	0.082727	0.417608	0.000000	0.000000	0.000000	-0.000000	0.000000	0.000000	0.507695	0.104765	0.438267	0.000000	0.000000	0.000000	-0.000000	0.000000	0.000000	0.517471	0.116545	0.435086	0.000000	0.000000	0.000000	-0.000000	0.000000	0.000000	0.515370	0.114604	0.412793	0.000000	0.000000	0.000000	-0.000000	0.000000	0.000000	0.531148	0.159437	0.464730	0.000000	0.000000	0.000000	-0.000000	0.000000	0.000000	0.521040	0.131188	0.429649	0.000000	0.000000	0.000000	-0.000000	0.000000	0.000000	0.535313	0.189761	0.407901	0.000000	0.000000	0.000000	-0.000000	0.000000	-0.000000	1.544230	0.118334	0.111937	0.000000	0.000000	0.000000	-0.000000	0.000000	-0.000000	1.504134	0.127854	0.089643	0.000000	0.000000	0.000000	-0.000000	0.000000	-0.000000	1.478011	0.132384	0.094209	0.000000	0.000000	0.000000	-0.000000	0.000000	-0.000000	1.478443	0.128073	0.115232	0.000000	0.000000	0.000000	-0.000000	0.000000	-0.000000	1.398967	0.148439	0.060358	0.000000	0.000000	0.000000	-0.000000	0.000000	-0.000000	1.448690	0.135204	0.097125	0.000000	0.000000	0.000000	-0.000000	0.000000	-0.000000	1.331408	0.146483	0.108790	0.000000	0.000000	0.000000
0.160164	-0.000000	0.000000	0.000000	0.513630	0.088710	0.416610	0.000000	0.000000	0.000000	-0.000000	0.000000	0.000000	0.524328	0.110553	0.437690	0.000000	0.000000	0.000000	-0.000000	0.000000	0.000000	0.534584	0.122307	0.434628	0.000000	0.000000	0.000000	-0.000000	0.000000	0.000000	0.532550	0.120480	0.412290	0.000000	0.000000	0.000000	-0.000000	0.000000	0.000000	0.550102	0.164903	0.465061	0.000000	0.000000	0.000000	-0.000000	0.000000	0.000000	0.538893	0.136924	0.429453	0.000000	0.000000	0.000000	-0.000000	0.000000	0.000000	0.556129	0.195393	0.408755	0.000000	0.000000	0.000000	-0.000000	0.000000	-0.000000	1.585522	0.116970	0.114542	0.000000	0.000000	0.000000	-0.000000	0.000000	-0.000000	1.544989	0.125814	0.091926	0.000000	0.000000	0.000000	-0.000000	0.000000	-0.000000	1.518738	0.130051	0.096252	0.000000	0.000000	0.000000	-0.000000	0.000000	-0.000000	1.519346	0.125873	0.117378	0.000000	0.000000	0.000000	-0.000000	0.000000	-0.000000	1.438922	0.144764	0.061779	0.000000	0.000000	0.000000	-0.000000	0.000000	-0.000000	1.489258	0.132466	0.099011	0.000000	0.000000	0.000000	-0.000000	0.000000	-0.000000	1.371339	0.142127	0.110047	0.000000	0.000000	0.000000
0.161606	-0.000000	0.000000	0.000000	0.525609	0.092977	0.416068	0.000000	0.000000	0.000000	-0.000000	0.000000	0.000000	0.536846	0.114688	0.437410	0.000000	0.000000	0.000000	-0.000000	0.000000	0.000000	0.547421	0.126420	0.434418	0.000000	0.000000	0.000000	-0.000000	0.000000	0.000000	0.545427	0.124665	0.412053	0.000000	0.000000	0.000000	-0.000000	0.000000	0.000000	0.564166	0.168811	0.465346	0.000000	0.000000	0.000000	-0.000000	0.000000	0.000000	0.552220	0.141014	0.429409	0.000000	0.000000	0.000000	-0.000000	0.000000	0.000000	0.571414	0.199388	0.409374	0.000000	0.000000	0.000000	-0.000000	0.000000	-0.000000	1.615183	0.116071	0.116265	0.000000	0.000000	0.000000	-0.000000	0.000000	-0.000000	1.574355	0.124442	0.093462	0.000000	0.000000	0.000000	-0.000000	0.000000	-0.000000	1.548029	0.128469	0.097636	0.000000	0.000000	0.000000	-0.000000	0.000000	-0.000000	1.548765	0.124377	0.118825	0.000000	0.000000	0.000000	-0.000000	0.000000	-0.000000	1.467699	0.142236	0.062797	0.000000	0.000000	0.000000	-0.000000	0.000000	-0.000000	1.518452	0.130593	0.100305	0.000000	0.000000	0.000000	-0.000000	0.000000	-0.000000	1.400142	0.139092	0.110981	0.000000	0.000000	0.000000
0.162236	-0.000000	0.000000	0.000000	0.530972	0.094820	0.415892	0.000000	0.000000	0.000000	-0.000000	0.000000	0.000000	0.542435	0.116477	0.437334	0.000000	0.000000	0.000000	-0.000000	0.000000	0.000000	0.553143	0.128199	0.434368	0.000000	0.000000	0.000000	-0.000000	0.000000	0.000000	0.551162	0.126472	0.411993	0.000000	0.000000	0.000000	-0.000000	0.000000	0.000000	0.570398	0.170504	0.465486	0.000000	0.000000	0.000000	-0.000000	0.000000	0.000000	0.558142	0.142781	0.429423	0.000000	0.000000	0.000000	-0.000000	0.000000	0.000000	0.578141	0.201110	0.409644	0.000000	0.000000	0.000000	-0.000000	0.000000	-0.000000	1.628057	0.115701	0.116966	0.000000	0.000000	0.000000	-0.000000	0.000000	-0.000000	1.587105	0.123872	0.094094	0.000000	0.000000	0.000000	-0.000000	0.000000	-0.000000	1.560750	0.127808	0.098209	0.000000	0.000000	0.000000	-0.000000	0.000000	-0.000000	1.561543	0.123751	0.119423	0.000000	0.000000	0.000000	-0.000000	0.000000	-0.000000	1.480205	0.141170	0.063236	0.000000	0.000000	0.000000	-0.000000	0.000000	-0.000000	1.531134	0.129806	0.100846	0.000000	0.000000	0.000000	-0.000000	0.000000	-0.000000	1.412673	0.137800	0.111393	0.000000	0.000000	0.000000
0.164226	-0.000000	0.000000	0.000000	0.548396	0.100570	0.415612	0.000000	0.000000	0.000000	-0.000000	0.000000	0.000000	0.560558	0.122067	0.437309	0.000000	0.000000	0.000000	-0.000000	0.000000	0.000000	0.571662	0.133751	0.434398	0.000000	0.000000	0.000000	-0.000000	0.000000	0.000000	0.569695	0.132099	0.412000	0.000000	0.000000	0.000000	-0.000000	0.000000	0.000000	0.590463	0.175800	0.466002	0.000000	0.000000	0.000000	-0.000000	0.000000	0.000000	0.577252	0.148293	0.429618	0.000000	0.000000	0.000000	-0.000000	0.000000	0.000000	0.599608	0.206462	0.410497	0.000000	0.000000	0.000000	-0.000000	0.000000	-0.000000	1.668379	0.114630	0.118952	0.000000	0.000000	0.000000	-0.000000	0.000000	-0.000000	1.627044	0.122186	0.095923	0.000000	0.000000	0.000000	-0.000000	0.000000	-0.000000	1.600614	0.125838	0.099883	0.000000	0.000000	0.000000	-0.000000	0.000000	-0.000000	1.601596	0.121877	0.121162	0.000000	0.000000	0.000000	-0.000000	0.000000	-0.000000	1.519424	0.137957	0.064593	0.000000	0.000000	0.000000	-0.000000	0.000000	-0.000000	1.570897	0.127442	0.102449	0.000000	0.000000	0.000000	-0.000000	0.000000	-0.000000	1.452027	0.133857	0.112712	0.000000	0.000000	0.000000
0.165668	-0.000000	0.000000	0.000000	0.561433	0.104672	0.415663	0.000000	0.000000	0.000000	-0.000000	0.000000	0.000000	0.574101	0.126063	0.437488	0.000000	0.000000	0.000000	-0.000000	0.000000	0.000000	0.585478	0.137711	0.434596	0.000000	0.000000	0.000000	-0.000000	0.000000	0.000000	0.583493	0.136103	0.412187	0.000000	0.000000	0.000000	-0.000000	0.000000	-0.000000	0.605359	0.179589	0.466448	0.000000	0.000000	0.000000	-0.000000	0.000000	0.000000	0.591459	0.152221	0.429901	0.000000	0.000000	0.000000	-0.000000	0.000000	-0.000000	0.615385	0.210262	0.411118	0.000000	0.000000	0.000000	-0.000000	0.000000	-0.000000	1.697230	0.113942	0.120174	0.000000	0.000000	0.000000	-0.000000	0.000000	-0.000000	1.655629	0.121074	0.097083	0.000000	0.000000	0.000000	-0.000000	0.000000	-0.000000	1.629155	0.124522	0.100963	0.000000	0.000000	0.000000	-0.000000	0.000000	-0.000000	1.630282	0.120618	0.122276	0.000000	0.000000	0.000000	-0.000000	0.000000	-0.000000	1.547525	0.135777	0.065541	0.000000	0.000000	0.000000	-0.000000	0.000000	-0.000000	1.599380	0.125844	0.103506	0.000000	0.000000	0.000000	-0.000000	0.000000	-0.000000	1.480281	0.131132	0.113677	0.000000	0.000000	0.000000
0.166298	-0.000000	0.000000	0.000000	0.567224	0.106447	0.415748	0.000000	0.000000	0.000000	-0.000000	0.000000	0.000000	0.580115	0.127795	0.437616	0.000000	0.000000	0.000000	-0.000000	0.000000	-0.000000	0.591609	0.139425	0.434727	0.000000	0.000000	0.000000	-0.000000	0.000000	-0.000000	0.589609	0.137832	0.412314	0.000000	0.000000	0.000000	-0.000000	0.000000	-0.000000	0.611956	0.181231	0.466661	0.000000	0.000000	0.000000	-0.000000	0.000000	-0.000000	0.597754	0.153920	0.430060	0.000000	0.000000	0.000000	-0.000000	0.000000	-0.000000	0.622335	0.211901	0.411391	0.000000	0.000000	0.000000	-0.000000	0.000000	-0.000000	1.709723	0.113664	0.120650	0.000000	0.000000	0.000000	-0.000000	0.000000	-0.000000	1.668008	0.120616	0.097546	0.000000	0.000000	0.000000	-0.000000	0.000000	-0.000000	1.641516	0.123975	0.101399	0.000000	0.000000	0.000000	-0.000000	0.000000	-0.000000	1.642708	0.120093	0.122725	0.000000	0.000000	0.000000	-0.000000	0.000000	-0.000000	1.559700	0.134862	0.065946	0.000000	0.000000	0.000000	-0.000000	0.000000	-0.000000	1.611720	0.125176	0.103939	0.000000	0.000000	0.000000	-0.000000	0.000000	-0.000000	1.492538	0.129978	0.114100	0.000000	0.000000	0.000000
0.168288	-0.000000	0.000000	-0.000000	0.585871	0.112001	0.416224	0.000000	0.000000	0.000000	-0.000000	0.000000	-0.000000	0.599482	0.133215	0.438179	0.000000	0.000000	0.000000	-0.000000	0.000000	-0.000000	0.611343	0.144775	0.435290	0.000000	0.000000	0.000000	-0.000000	0.000000	-0.000000	0.609271	0.143227	0.412871	0.000000	0.000000	0.000000	-0.000000	0.000000	-0.000000	0.633156	0.186362	0.467401	0.000000	0.000000	0.000000	-0.000000	0.000000	-0.000000	0.617985	0.159221	0.430685	0.000000	0.000000	0.000000	-0.000000	0.000000	-0.000000	0.644552	0.217003	0.412265	0.000000	0.000000	0.000000	-0.000000	0.000000	-0.000000	1.748740	0.112878	0.121932	0.000000	0.000000	0.000000	-0.000000	0.000000	-0.000000	1.706671	0.119279	0.098834	0.000000	0.000000	0.000000	-0.000000	0.000000	-0.000000	1.680123	0.122356	0.102638	0.000000	0.000000	0.000000	-0.000000	0.000000	-0.000000	1.681532	0.118531	0.123992	0.000000	0.000000	0.000000	-0.000000	0.000000	-0.000000	1.597746	0.132122	0.067178	0.000000	0.000000	0.000000	-0.000000	0.000000	-0.000000	1.650277	0.123178	0.105197	0.000000	0.000000	0.000000	-0.000000	0.000000	-0.000000	1.530896	0.126469	0.115432	0.000000	0.000000	0.000000
